<?xml version="1.0" encoding="utf-8"?>
<!-- Generator: Adobe Illustrator 22.1.0, SVG Export Plug-In . SVG Version: 6.00 Build 0)  -->
<svg version="1.1" id="圖層_1" xmlns="http://www.w3.org/2000/svg" xmlns:xlink="http://www.w3.org/1999/xlink" x="0px" y="0px"
	 viewBox="0 0 612.3 348.7" style="enable-background:new 0 0 612.3 348.7;" xml:space="preserve">
<style type="text/css">
	.st0{fill:none;stroke:#FF0000;stroke-width:0.1;stroke-linecap:round;}
	.st1{fill:#565656;}
	.st2{enable-background:new    ;}
	.st3{fill:#666666;}
</style>
<path id="front_outsideCutPath" vector-effect="non-scaling-stroke" class="st0" d="M0,218.3v41.3h8.5v47.8H0v41.3h34.5v-8.5h47.8
	v8.5h47.8v-8.5h47.8v8.5h34.5v-41.3h-8.5v-47.8h8.5v-41.3h-34.5v8.5h-47.8v-8.5H82.4v8.5H34.5v-8.5H0z"/>
<path id="left_outsideCutPath" vector-effect="non-scaling-stroke" class="st0" d="M229.6,218.3v41.3h-8.5v47.8h8.5v41.3h52.6v-8.5
	h47.8v8.5h47.8h4.8v-41.3h8.5v-47.8h-8.5v-41.3h-52.6v8.5h-47.8v-8.5h-47.8H229.6z"/>
<path id="top_outsideCutPath" vector-effect="non-scaling-stroke" class="st0" d="M408.2,187.1v52.6h-8.5v47.8h8.5v47.8v4.8h26v8.5
	h47.8v-8.5h47.8v8.5h47.8v-8.5h26v-52.6h8.5v-47.8h-8.5v-47.8v-4.8h-26v-8.5h-47.8v8.5h-47.8v-8.5h-47.8v8.5H408.2z"/>
<path id="back_outsideCutPath" vector-effect="non-scaling-stroke" class="st0" d="M0,79.4v41.3h8.5v47.8H0v41.3h34.5v-8.5h47.8v8.5
	h47.8v-8.5h47.8v8.5h34.5v-41.3h-8.5v-47.8h8.5V79.4h-34.5v8.5h-47.8v-8.5H82.4v8.5H34.5v-8.5H0z"/>
<path id="right_outsideCutPath" vector-effect="non-scaling-stroke" class="st0" d="M229.6,79.4v41.3h-8.5v47.8h8.5v41.3h52.6v-8.5
	h47.8v8.5h47.8h4.8v-41.3h8.5v-47.8h-8.5V79.4h-52.6v8.5h-47.8v-8.5h-47.8H229.6z"/>
<path id="bottom_outsideCutPath" vector-effect="non-scaling-stroke" class="st0" d="M408.2,8.5v52.6h-8.5V109h8.5v47.8v4.8h26v8.5
	h47.8v-8.5h47.8v8.5h47.8v-8.5h26V109h8.5V61.1h-8.5V13.3V8.5h-26V0h-47.8v8.5h-47.8V0h-47.8v8.5H408.2z"/>
<g>
	<rect x="252.6" y="297.3" class="st0" width="39.9" height="36.8"/>
	<rect x="343.9" y="296.1" class="st0" width="29.2" height="37.8"/>
</g>
<g>
	<g>
		<path class="st1" d="M139.7,259.8l-1.2-0.6l-1.6-4.9l0.6-1.2l3-1l1.2,0.6l-0.2,0.4l-1-0.5l-2.6,0.8l-0.4,0.8l1.5,4.5l0.8,0.4
			l2.2-0.7l0.7-1.3l-0.5-1.4l-1.5,0.5l-0.2-0.5l1.9-0.6l1.1,3.3l-0.4,0.1l-0.3-0.9l-0.6,1.2L139.7,259.8z"/>
		<path class="st1" d="M144,258.4l2.8-6.8l0.9,0.1l2,7.1l-0.5,0l-0.5-2l-3.3-0.2l-0.8,1.9L144,258.4z M145.5,256.1l3,0.2l-1.1-4.1
			l-0.2,0L145.5,256.1z"/>
		<path class="st1" d="M150.1,258.9l3.2-6.2l0.7,0.4l-0.7,6.5l4.9-4.4l0.7,0.4l-3.2,6.2l-0.5-0.2l2.8-5.5l-0.1-0.1l-5,4.4l-0.3-0.1
			l0.7-6.6l-0.1-0.1l-2.8,5.5L150.1,258.9z"/>
		<path class="st1" d="M156.6,262.8l5.4-4.4l2.8,3.4l-0.4,0.3l-2.4-3l-2,1.6l2.1,2.6l-0.4,0.3l-2.1-2.6l-2.3,1.9l2.4,3l-0.4,0.3
			L156.6,262.8z"/>
		<path class="st1" d="M159.7,266.9l6.6-2.3l1.1,3.2l-0.6,1.2l-1.5,0.5l-0.8-0.2l-0.6,1.1l-1.8,0.6l-1.2-0.6L159.7,266.9z
			 M160.3,267.2l1,2.9l0.8,0.4l1.5-0.5l0.5-0.9l-1-2.8L160.3,267.2z M163.6,266.1l0.9,2.7l0.7,0.2l1.3-0.4l0.4-0.8l-0.9-2.5
			L163.6,266.1z"/>
		<path class="st1" d="M161.4,273.1l1-0.9l5.1,0.1l0.9,0.9l-0.1,3.1l-1,0.9l-5.1-0.1l-0.9-0.9L161.4,273.1z M161.9,273.3l-0.1,2.7
			l0.6,0.6l4.8,0.1l0.6-0.6l0.1-2.7l-0.6-0.6l-4.8-0.1L161.9,273.3z"/>
		<path class="st1" d="M161.2,277.4l2.5,3.3l4-0.7l-0.2,0.6l-3.7,0.6l-0.1,0.2l2.2,3l-0.2,0.6l-2.4-3.3l-4.1,0.7l0.2-0.6l3.7-0.6
			l0.1-0.2l-2.3-3L161.2,277.4z"/>
	</g>
	<g class="st2">
		<path class="st3" d="M88.3,283.7l-8.2,16.4c0,0.1-0.2,0.2-0.4,0.2h-4.9c-0.1,0-0.4-0.1-0.4-0.2l-8.7-16.8v18
			c0,0.2-0.2,0.4-0.4,0.4h-5.3c-0.3,0-0.4-0.2-0.4-0.4V270c0-0.2,0.1-0.4,0.4-0.4h5.4c0.1,0,0.4,0.1,0.4,0.2l11.5,23.4l10.9-23.4
			c0.1-0.1,0.3-0.2,0.4-0.2h5.3c0.3,0,0.4,0.2,0.4,0.4v23.9h-6.1V283.7z"/>
		<path class="st3" d="M109.6,296.5v4.8c0,0.2-0.2,0.4-0.4,0.4H96.6c-0.2,0-0.4-0.2-0.4-0.4v-4.8c0-0.2,0.2-0.4,0.4-0.4h3.3v-11.3
			v-9.7v-5.5h6.1v5.5v9.7v11.3h3.2C109.5,296.1,109.6,296.3,109.6,296.5z"/>
		<path class="st3" d="M137.2,270v31.3c0,0.2-0.2,0.4-0.4,0.4h-5.3c-0.1,0-0.3,0-0.4-0.1l-14.7-21.1v13.5h-6.1v-24
			c0-0.2,0.2-0.4,0.4-0.4h5.3c0.1,0,0.3,0,0.4,0.1l14.8,21.1V270c0-0.2,0.2-0.4,0.5-0.4h5.2C137.1,269.6,137.2,269.8,137.2,270z"/>
		<path class="st3" d="M152.1,296.5v4.8c0,0.2-0.2,0.4-0.4,0.4H139c-0.2,0-0.4-0.2-0.4-0.4v-4.8c0-0.2,0.2-0.4,0.4-0.4h3.3v-11.3
			v-9.7v-5.5h6.1v5.5v9.7v11.3h3.2C151.9,296.1,152.1,296.3,152.1,296.5z"/>
	</g>
</g>
<ellipse id="path69777" transform="matrix(0.2282 -0.9736 0.9736 0.2282 166.1283 740.0603)" class="st0" cx="549.9" cy="265.2" rx="15.6" ry="15.6"/>
</svg>
